<?xml version="1.0" encoding="iso-8859-1"?>
<!-- Uploaded to: SVG Repo, www.svgrepo.com, Generator: SVG Repo Mixer Tools -->
<svg version="1.1" id="Layer_1" xmlns="http://www.w3.org/2000/svg" xmlns:xlink="http://www.w3.org/1999/xlink" 
	 viewBox="0 0 512 512" xml:space="preserve">
<g>
	<path style="fill:#57555C;" d="M435.127,153.401v143.266c0,28.515-23.197,51.712-51.722,51.712h-44.513v-31.347h44.513
		c11.233,0,20.376-9.132,20.376-20.365V153.401H435.127z"/>
	<path style="fill:#57555C;" d="M460.466,0.606v31.347c-10.731,0-17.366,3.741-21.514,12.131c-3.574,7.252-3.803,15.13-3.824,15.872
		l0.01,0.136l-0.01-0.031v22.288H403.78V60.123c-0.021-3.176,0.408-27.293,17.157-44.22C430.843,5.893,444.52,0.606,460.466,0.606z"
		/>
</g>
<g>
	<path style="fill:#2B292C;" d="M419.109,153.401h16.018v143.266c0,28.515-23.197,51.712-51.722,51.712h-44.513v-16.802h48.118
		c26.854,0,32.099-27.512,32.099-27.512v-33.782C419.109,270.284,419.109,210.589,419.109,153.401z"/>
	<path style="fill:#2B292C;" d="M460.466,15.673v16.28c-10.731,0-17.366,3.741-21.514,12.131c-3.574,7.252-3.803,15.13-3.824,15.872
		l0.01,0.136l-0.01-0.031v22.288h-16.018V58.514C419.109,18.808,460.466,15.673,460.466,15.673z"/>
</g>
<rect x="388.545" y="70.019" style="fill:#E70020;" width="61.127" height="112.149"/>
<rect x="419.109" y="70.019" style="fill:#990013;" width="30.563" height="112.149"/>
<rect x="82.871" style="fill:#E70020;" width="271.694" height="453.726"/>
<rect x="219.763" style="fill:#990013;" width="134.802" height="453.726"/>
<rect x="51.534" y="422.379" style="fill:#57555C;" width="334.367" height="89.621"/>
<g>
	<rect x="140.936" y="61.649" style="fill:#FFFFFF;" width="155.554" height="96.549"/>
	<rect x="82.871" y="266.606" style="fill:#FFFFFF;" width="271.694" height="31.347"/>
	<rect x="172.21" y="326.949" style="fill:#FFFFFF;" width="95.107" height="31.347"/>
</g>
<rect x="219.763" y="422.379" style="fill:#2B292C;" width="166.139" height="89.621"/>
<g>
	<rect x="219.763" y="326.949" style="fill:#C8C6CD;" width="47.553" height="31.347"/>
	<rect x="219.763" y="61.649" style="fill:#C8C6CD;" width="76.727" height="96.549"/>
	<rect x="219.763" y="266.606" style="fill:#C8C6CD;" width="134.802" height="31.347"/>
</g>
</svg>